<?xml version="1.0" encoding="UTF-8"?>
<svg width="40px" height="40px" viewBox="0 0 40 40" version="1.1" xmlns="http://www.w3.org/2000/svg" xmlns:xlink="http://www.w3.org/1999/xlink">
    <title>user avatar</title>
    <defs>
        <path d="M19,0 L19,0 C29.4934102,-1.92760819e-15 38,8.50658975 38,19 L38,19 C38,29.4934102 29.4934102,38 19,38 L19,38 C8.50658975,38 1.28507213e-15,29.4934102 0,19 L0,19 C-1.28507213e-15,8.50658975 8.50658975,1.92760819e-15 19,0 Z" id="path-1"></path>
    </defs>
    <g id="Artboard" stroke="none" stroke-width="1" fill="none" fill-rule="evenodd">
        <g id="Group-2" transform="translate(1.000000, 1.000000)">
            <g>
                <mask id="mask-2" fill="white">
                    <use xlink:href="#path-1"></use>
                </mask>
                <use id="Mask" fill="#99558E" xlink:href="#path-1"></use>
                <path d="M4.75,37.05 C6.87957272,30.6658788 12.4560132,24.3833333 18.9999997,24.3833333 C25.543987,24.3833333 31.1204275,30.665879 33.25,37.05 L4.75,37.05 Z M19.1416607,6.75986641 C24.0554449,6.75986641 28.0388178,10.466878 28.0388178,15.0397145 C28.0388178,19.6124907 24.0554449,23.3195023 19.1416607,23.3195023 C14.2279383,23.3195023 10.2445653,19.6124906 10.2445653,15.0397145 C10.2445653,14.8332695 10.2617997,14.6309316 10.2777369,14.4282917 C10.8539469,14.3529737 11.6908351,14.2272826 12.6767795,14.0430645 C13.1245653,15.4121371 14.6741798,16.1937049 16.2134786,15.7904183 C17.7461676,15.3888229 18.6858446,13.9650284 18.3857558,12.5662998 C20.8331658,11.7283793 23.3104736,10.5603158 25.1413982,8.93847182 C24.8663889,8.70412226 24.577975,8.48402695 24.2728827,8.28301784 C22.55636,9.74848774 20.2239694,10.8229927 17.9114079,11.601299 C17.2712637,10.9237388 16.1555981,10.8685941 14.9511659,11.1841809 C13.7559996,11.4972912 12.8207084,12.0828632 12.6032706,12.9711567 C11.7440209,13.136047 10.9959609,13.2562418 10.4348851,13.3363314 C11.2791242,9.58100036 14.8556045,6.75986641 19.1416607,6.75986641 Z" fill="#FFFFFF" fill-rule="nonzero" mask="url(#mask-2)"></path>
                <path d="M22.0331078,14.6257495 C21.5417205,14.6257495 21.1433716,14.2550701 21.1433716,13.7978143 C21.1433716,13.3405584 21.5417206,12.969879 22.0331078,12.969879 C22.5244951,12.969879 22.9228421,13.3405584 22.9228421,13.7978143 C22.9228421,14.2550701 22.5244951,14.6257495 22.0331078,14.6257495 Z M25.1413981,8.93847182 C23.3104735,10.5603159 20.8331657,11.7283793 18.3857557,12.5663 C18.6858445,13.9650286 17.7461675,15.388823 16.2134785,15.7904185 C14.6741799,16.193705 13.1245653,15.4121372 12.6767795,14.0430646 C11.6908351,14.2272826 10.8539469,14.3529738 10.2777369,14.4282917 C10.3069551,14.0575604 10.354952,13.6919025 10.4348851,13.3363315 C10.9959609,13.2562418 11.7440209,13.1360471 12.6032706,12.9711568 C12.8207084,12.0828633 13.7559996,11.4972913 14.9511658,11.1841809 C16.155598,10.8685941 17.2712637,10.9237388 17.9114078,11.601299 C20.2239693,10.8229927 22.5563598,9.74848784 24.2728826,8.28301784 C24.5779749,8.48402695 24.8663888,8.70412226 25.1413981,8.93847182 Z" fill="#6A3460" fill-rule="nonzero" mask="url(#mask-2)"></path>
            </g>
            <path d="M19,0.95 C9.03126027,0.95 0.95,9.03126027 0.95,19 C0.95,28.9687397 9.03126027,37.05 19,37.05 C28.9687397,37.05 37.05,28.9687397 37.05,19 C37.05,9.03126027 28.9687397,0.95 19,0.95 Z M19,-0.95 C30.0180808,-0.95 38.95,7.98191924 38.95,19 C38.95,30.0180808 30.0180808,38.95 19,38.95 C7.98191924,38.95 -0.95,30.0180808 -0.95,19 C-0.95,7.98191924 7.98191924,-0.95 19,-0.95 Z" fill="#99558E" fill-rule="nonzero"></path>
        </g>
    </g>
</svg>
