<svg xmlns="http://www.w3.org/2000/svg" viewBox="0 0 20 20"><style type="text/css">  
	.st0{fill:#F9BF38;}
</style><path class="st0" d="M16.2 6.9c0 0 2.2 2.1 2.8 2.6 0.7 0.7 0.7 1.4 0.3 1.7 -0.3 0.3-1 0.3-1.7-0.3 -1.2-1.1-6.4-6.1-6.4-6.1 -0.6-0.5-1.6-0.5-2.2 0 0 0-5 4.8-6.4 6.1 -0.8 0.7-1.4 0.7-1.8 0.3 -0.3-0.3-0.4-1 0.3-1.7 2.1-2 7.2-6.7 7.2-6.7 1-1 2.6-1 3.6 0L14.2 5V4.3c0 0 0-1 1-1s1 1 1 1V6.9z"/><path class="st0" d="M17.5 12.1v5.1c0 0.4-0.3 0.8-0.9 0.8h-4.5v-4.2c0-0.4-0.3-0.8-0.9-0.8H8.7c-0.5 0-0.9 0.3-0.9 0.8V18H3.4c-0.5 0-0.9-0.3-0.9-0.8v-5l6.2-5.7c0.7-0.6 1.8-0.6 2.5 0L17.5 12.1z"/></svg>